<svg xmlns="http://www.w3.org/2000/svg" viewBox="0 0 640 400" role="img" aria-label="ระบบกล้องวงจรปิด">
  <defs>
    <linearGradient id="bg" x1="0" y1="0" x2="1" y2="1">
      <stop offset="0" stop-color="#fef2f2"/><stop offset="1" stop-color="#ffffff"/>
    </linearGradient>
    <pattern id="dots" width="22" height="22" patternUnits="userSpaceOnUse">
      <circle cx="2" cy="2" r="1.4" fill="#cbd5e1" opacity=".55"/>
    </pattern>
  </defs>
  <rect width="640" height="400" fill="url(#bg)"/>
  <rect x="380" y="0" width="260" height="190" fill="url(#dots)"/>
  <circle cx="560" cy="330" r="150" fill="#fecaca" opacity=".35"/>
  <circle cx="70" cy="60" r="90" fill="#e2e8f0" opacity=".6"/>
  
    <rect x="0" y="340" width="640" height="60" fill="#e2e8f0" opacity=".7"/><rect x="0" y="340" width="640" height="3" fill="#cbd5e1"/>
    <rect x="0" y="40" width="26" height="300" fill="#e2e8f0"/>
    <g transform="translate(26 100)">
      <rect x="0" y="-10" width="24" height="44" rx="4" fill="#334155"/>
      <rect x="20" y="4" width="34" height="12" fill="#334155"/>
      <g transform="translate(54 -6) rotate(14)">
        <rect x="0" y="0" width="130" height="48" rx="12" fill="#ffffff" stroke="#cbd5e1" stroke-width="2"/>
        <rect x="108" y="4" width="30" height="40" rx="8" fill="#0f172a"/>
        <circle cx="126" cy="24" r="11" fill="#1e293b"/><circle cx="126" cy="24" r="5" fill="#dc2626"/>
        <rect x="10" y="-8" width="96" height="10" rx="5" fill="#e2e8f0"/>
      </g>
    </g>
    <path d="M200 150 L420 110 L470 330 L230 330 Z" fill="#dc2626" opacity=".08"/>
    <path d="M200 150 L420 110 M200 150 L470 330" stroke="#dc2626" stroke-width="2" stroke-dasharray="6 8" opacity=".5"/>
    <g transform="translate(330 250)">
      <circle cx="0" cy="-58" r="16" fill="#334155"/>
      <path d="M-24 0 q0 -38 24 -38 q24 0 24 38 z" fill="#334155"/>
      <rect x="-32" y="-84" width="64" height="100" fill="none" stroke="#dc2626" stroke-width="3" rx="6"/>
      <rect x="-32" y="-100" width="44" height="14" rx="3" fill="#dc2626"/>
      <text x="-10" y="-89.5" text-anchor="middle" font-family="Arial,sans-serif" font-size="9" font-weight="700" fill="#ffffff">PERSON</text>
    </g>
    <g transform="translate(470 60)">
      <rect width="140" height="96" rx="8" fill="#0f172a"/>
      <rect x="10" y="10" width="58" height="36" rx="3" fill="#334155"/><rect x="72" y="10" width="58" height="36" rx="3" fill="#1e293b"/><rect x="10" y="50" width="58" height="36" rx="3" fill="#1e293b"/><rect x="72" y="50" width="58" height="36" rx="3" fill="#334155"/>
      <circle cx="20" cy="20" r="3.5" fill="#dc2626"/>
      <rect x="60" y="96" width="20" height="14" fill="#334155"/>
    </g>
</svg>
