<svg xmlns="http://www.w3.org/2000/svg" viewBox="0 0 640 400" role="img" aria-label="ระบบแจ้งเหตุเพลิงไหม้">
  <defs>
    <linearGradient id="bg" x1="0" y1="0" x2="1" y2="1">
      <stop offset="0" stop-color="#fef2f2"/><stop offset="1" stop-color="#ffffff"/>
    </linearGradient>
    <pattern id="dots" width="22" height="22" patternUnits="userSpaceOnUse">
      <circle cx="2" cy="2" r="1.4" fill="#cbd5e1" opacity=".55"/>
    </pattern>
  </defs>
  <rect width="640" height="400" fill="url(#bg)"/>
  <rect x="380" y="0" width="260" height="190" fill="url(#dots)"/>
  <circle cx="560" cy="330" r="150" fill="#fecaca" opacity=".35"/>
  <circle cx="70" cy="60" r="90" fill="#e2e8f0" opacity=".6"/>
  
    <rect x="0" y="56" width="640" height="14" fill="#e2e8f0"/><rect x="0" y="70" width="640" height="4" fill="#cbd5e1"/><rect x="0" y="340" width="640" height="60" fill="#e2e8f0" opacity=".7"/><rect x="0" y="340" width="640" height="3" fill="#cbd5e1"/>
    <g transform="translate(150 74)">
      <rect x="-46" y="0" width="92" height="12" rx="4" fill="#cbd5e1"/>
      <path d="M-40 12 h80 a8 8 0 0 1 -8 18 h-64 a8 8 0 0 1 -8 -18z" fill="#ffffff" stroke="#cbd5e1" stroke-width="2"/>
      <circle cx="0" cy="22" r="4" fill="#dc2626"/>
      <path d="M-15.400000000000002 43 Q0 56.2 15.400000000000002 43" fill="none" stroke="#dc2626" stroke-width="2.6" stroke-linecap="round" opacity="0.78"/><path d="M-30.800000000000004 54 Q0 80.4 30.800000000000004 54" fill="none" stroke="#dc2626" stroke-width="2" stroke-linecap="round" opacity="0.56"/><path d="M-46.2 65 Q0 104.60000000000001 46.2 65" fill="none" stroke="#dc2626" stroke-width="1.4000000000000004" stroke-linecap="round" opacity="0.33999999999999997"/>
    </g>
    <circle cx="128" cy="270" r="26" fill="#64748b" opacity="0.16"/><circle cx="160" cy="250" r="32" fill="#64748b" opacity="0.14500000000000002"/><circle cx="196" cy="262" r="24" fill="#64748b" opacity="0.13"/><circle cx="150" cy="214" r="20" fill="#64748b" opacity="0.115"/><circle cx="178" cy="196" r="16" fill="#64748b" opacity="0.1"/><circle cx="160" cy="162" r="12" fill="#64748b" opacity="0.085"/>
    <g transform="translate(330 150)">
      <rect width="150" height="170" rx="12" fill="#0f172a"/>
      <rect x="16" y="18" width="118" height="46" rx="6" fill="#1e293b"/>
      <rect x="26" y="30" width="70" height="7" rx="3" fill="#dc2626"/>
      <rect x="26" y="44" width="52" height="6" rx="3" fill="#64748b"/>
      <circle cx="32" cy="86" r="7" fill="#dc2626"/><circle cx="61" cy="86" r="7" fill="#f59e0b"/><circle cx="90" cy="86" r="7" fill="#22c55e"/><circle cx="119" cy="86" r="7" fill="#22c55e"/>
      <rect x="20" y="106" width="22" height="11" rx="3" fill="#334155"/><rect x="49" y="106" width="22" height="11" rx="3" fill="#334155"/><rect x="78" y="106" width="22" height="11" rx="3" fill="#334155"/><rect x="107" y="106" width="22" height="11" rx="3" fill="#334155"/><rect x="20" y="124" width="22" height="11" rx="3" fill="#334155"/><rect x="49" y="124" width="22" height="11" rx="3" fill="#334155"/><rect x="78" y="124" width="22" height="11" rx="3" fill="#334155"/><rect x="107" y="124" width="22" height="11" rx="3" fill="#334155"/><rect x="20" y="142" width="22" height="11" rx="3" fill="#334155"/><rect x="49" y="142" width="22" height="11" rx="3" fill="#334155"/><rect x="78" y="142" width="22" height="11" rx="3" fill="#334155"/><rect x="107" y="142" width="22" height="11" rx="3" fill="#334155"/>
    </g>
    <g transform="translate(520 170)">
      <rect width="62" height="70" rx="8" fill="#dc2626"/>
      <rect x="12" y="14" width="38" height="30" rx="4" fill="#ffffff"/>
      <path d="M22 36 l9 -12 9 12" fill="none" stroke="#dc2626" stroke-width="4" stroke-linecap="round" stroke-linejoin="round"/>
      <rect x="18" y="52" width="26" height="6" rx="3" fill="#991b1b"/>
    </g>
    <g transform="translate(551 104)">
      <circle r="24" fill="#dc2626"/><circle r="15" fill="#991b1b"/><circle r="5" fill="#fecaca"/>
      <path d="M32 -10 q10 10 0 20 M42 -18 q16 18 0 36" fill="none" stroke="#dc2626" stroke-width="3" stroke-linecap="round"/>
    </g>
</svg>
