<svg xmlns="http://www.w3.org/2000/svg" viewBox="0 0 640 400" role="img" aria-label="ระบบเครื่องสูบน้ำดับเพลิง">
  <defs>
    <linearGradient id="bg" x1="0" y1="0" x2="1" y2="1">
      <stop offset="0" stop-color="#fef2f2"/><stop offset="1" stop-color="#ffffff"/>
    </linearGradient>
    <pattern id="dots" width="22" height="22" patternUnits="userSpaceOnUse">
      <circle cx="2" cy="2" r="1.4" fill="#cbd5e1" opacity=".55"/>
    </pattern>
  </defs>
  <rect width="640" height="400" fill="url(#bg)"/>
  <rect x="380" y="0" width="260" height="190" fill="url(#dots)"/>
  <circle cx="560" cy="330" r="150" fill="#fecaca" opacity=".35"/>
  <circle cx="70" cy="60" r="90" fill="#e2e8f0" opacity=".6"/>
  
    <rect x="0" y="330" width="640" height="60" fill="#e2e8f0" opacity=".7"/><rect x="0" y="330" width="640" height="3" fill="#cbd5e1"/>
    <rect x="60" y="150" width="520" height="22" rx="11" fill="#dc2626"/>
    <rect x="100" y="120" width="22" height="210" fill="#dc2626"/>
    <rect x="500" y="120" width="22" height="210" fill="#dc2626"/>
    <rect x="92" y="186" width="38" height="16" rx="3" fill="#991b1b"/>
    <rect x="492" y="186" width="38" height="16" rx="3" fill="#991b1b"/>
    <g transform="translate(180 230)">
      <rect x="0" y="80" width="300" height="20" rx="4" fill="#334155"/>
      <rect x="10" y="10" width="140" height="70" rx="10" fill="#0f172a"/>
      <rect x="24" y="18" width="8" height="54" rx="4" fill="#1e293b"/><rect x="44" y="18" width="8" height="54" rx="4" fill="#1e293b"/><rect x="64" y="18" width="8" height="54" rx="4" fill="#1e293b"/><rect x="84" y="18" width="8" height="54" rx="4" fill="#1e293b"/><rect x="104" y="18" width="8" height="54" rx="4" fill="#1e293b"/><rect x="124" y="18" width="8" height="54" rx="4" fill="#1e293b"/>
      <rect x="150" y="36" width="30" height="18" fill="#64748b"/>
      <circle cx="222" cy="44" r="40" fill="#dc2626"/>
      <circle cx="222" cy="44" r="22" fill="#991b1b"/>
      <rect x="212" y="-40" width="20" height="46" fill="#dc2626"/>
    </g>
    <g transform="translate(560 90)">
      <circle r="34" fill="#ffffff" stroke="#0f172a" stroke-width="6"/>
      <path d="M-22 12 A26 26 0 1 1 22 12" fill="none" stroke="#e2e8f0" stroke-width="6"/>
      <path d="M-22 12 A26 26 0 0 1 10 -24" fill="none" stroke="#dc2626" stroke-width="6" stroke-linecap="round"/>
      <line x1="0" y1="0" x2="14" y2="-18" stroke="#0f172a" stroke-width="4" stroke-linecap="round"/>
      <circle r="5" fill="#0f172a"/>
      <rect x="-6" y="34" width="12" height="26" fill="#0f172a"/>
    </g>
    <path d="M70 110 q7 11 0 17 q-7 -6 0 -17z" fill="#38bdf8"/><path d="M96 96 q7 11 0 17 q-7 -6 0 -17z" fill="#38bdf8"/><path d="M120 118 q7 11 0 17 q-7 -6 0 -17z" fill="#38bdf8"/>
</svg>
